<svg xmlns="http://www.w3.org/2000/svg" viewBox="0 0 512 512">
  <defs>
    <linearGradient id="bgGrad" x1="0%" y1="0%" x2="100%" y2="100%">
      <stop offset="0%" style="stop-color:#667eea"/>
      <stop offset="100%" style="stop-color:#764ba2"/>
    </linearGradient>
    <linearGradient id="accentGrad" x1="0%" y1="0%" x2="100%" y2="100%">
      <stop offset="0%" style="stop-color:#a855f7"/>
      <stop offset="100%" style="stop-color:#6366f1"/>
    </linearGradient>
  </defs>

  <circle cx="256" cy="256" r="240" fill="url(#bgGrad)"/>
  <circle cx="256" cy="256" r="200" fill="none" stroke="rgba(255,255,255,0.2)" stroke-width="3"/>
  <path d="M180 140 L180 372 L220 372 L220 280 L280 280 C340 280 380 240 380 200 C380 160 340 140 280 140 Z M220 180 L270 180 C310 180 340 190 340 210 C340 230 310 240 270 240 L220 240 Z" fill="white"/>
  <circle cx="320" cy="320" r="20" fill="url(#accentGrad)" opacity="0.9"/>
  <circle cx="360" cy="280" r="12" fill="#22c55e" opacity="0.9"/>
  <circle cx="380" cy="340" r="8" fill="#f59e0b" opacity="0.9"/>
  <path d="M400 160 L405 175 L420 180 L405 185 L400 200 L395 185 L380 180 L395 175 Z" fill="white" opacity="0.8"/>
</svg>
